<svg width="197" height="45" viewBox="0 0 197 45" fill="none" xmlns="http://www.w3.org/2000/svg">
<path d="M42.7537 10.1494H48.6231V34.615C48.6231 40.4785 46.9087 44.3431 40.7982 44.3431C38.0097 44.3407 35.3142 43.3398 33.1999 41.5217L34.3621 37.2155C34.9578 37.8809 36.8436 39.54 39.5081 39.5662C41.3677 39.5865 42.7624 38.2819 42.7624 36.2276L42.7537 10.1494Z" fill="black"/>
<path d="M77.4297 23.713H58.2727C58.2727 27.6734 61.0563 30.6517 66.2371 30.6517C69.6542 30.6517 72.8213 29.2773 74.5066 27.6792L75.8664 31.8749C73.2775 34.2227 69.5612 35.4431 65.5049 35.4431C58.2233 35.4431 52.3074 30.0676 52.3074 22.8326C52.3074 15.5016 57.9793 9.53923 65.0661 9.53923C72.9346 9.53923 77.5779 14.7694 77.5779 22.0015C77.5755 22.5751 77.5259 23.1475 77.4297 23.713ZM65.0661 14.3306C61.6927 14.3306 59.0543 16.4808 58.2233 19.9008H72.0542C71.4179 16.7162 69.0236 14.3219 65.0661 14.3219V14.3306Z" fill="black"/>
<path d="M90.4383 26.0985C90.4383 29.1785 92.1468 30.2536 94.0529 30.2536C95.464 30.2616 96.8616 29.9787 98.1586 29.4226V34.0164C96.4965 34.7544 94.297 35.045 92.295 35.045C87.9365 35.045 84.6212 32.9442 84.6212 26.7872V15.1065H79.7833V10.2627H84.5282L86.0624 4.53571H90.4383V10.254H98.1092V15.0948H90.4383V26.0985Z" fill="black"/>
<path d="M108.232 0V34.7021H102.421V0H108.232Z" fill="black"/>
<path d="M160.682 20.9178C160.682 17.399 158.971 15.1994 156.033 15.1994C153.834 15.1994 150.266 16.7162 148.604 19.9909V34.7022H142.792V10.2627H148.604V13.9297C150.754 11.1432 154.124 9.62932 157.745 9.62932C162.777 9.62932 166.494 13.1481 166.494 19.4533V34.7022H160.682V20.9178Z" fill="black"/>
<path d="M190.454 34.7021V31.5263C189.545 32.7311 188.372 33.7104 187.024 34.3882C185.676 35.066 184.19 35.424 182.681 35.4344C175.548 35.4344 170.768 29.6231 170.768 22.481C170.768 15.397 175.559 9.53052 182.681 9.53052C184.193 9.55131 185.68 9.91892 187.028 10.605C188.375 11.2912 189.547 12.2775 190.454 13.488V0H196.265V34.7021H190.454ZM190.454 27.0283V17.986C189.752 17.0527 188.844 16.2938 187.802 15.7682C186.759 15.2426 185.609 14.9644 184.442 14.9554C180.336 14.9554 176.963 18.4247 176.963 22.481C176.942 24.0632 177.423 25.6113 178.338 26.9026C179.252 28.1939 180.553 29.1619 182.052 29.6673C183.552 30.1727 185.173 30.1895 186.682 29.7154C188.192 29.2412 189.512 28.3004 190.454 27.0283Z" fill="black"/>
<path d="M138.097 23.713H118.94C118.94 27.6734 121.726 30.6517 126.907 30.6517C130.321 30.6517 133.488 29.2773 135.174 27.6792L136.536 31.8749C133.945 34.2227 130.231 35.4431 126.175 35.4431C118.89 35.4431 112.977 30.0676 112.977 22.8326C112.977 15.5016 118.646 9.53923 125.733 9.53923C133.602 9.53923 138.248 14.7694 138.248 22.0015C138.244 22.5752 138.194 23.1476 138.097 23.713ZM125.73 14.3306C122.36 14.3306 119.718 16.4808 118.887 19.9008H132.721C132.085 16.7162 129.691 14.3219 125.73 14.3219V14.3306Z" fill="black"/>
<path d="M35.1438 0.0900917L0 10.2628L14.6648 24.9276L25.6743 35.4344L35.1438 0.0900917Z" fill="#0BD194"/>
</svg>
