<svg width="46" height="32" viewBox="0 0 46 32" fill="none" xmlns="http://www.w3.org/2000/svg">
<g clip-path="url(#clip0)">
<path d="M45.3333 0H0V32H45.3333V0Z" fill="#CBDB2A"/>
<path d="M11.2958 20.8394C12.0726 20.8394 13.9821 20.7061 15.4116 19.6722V20.4556H18.2921L18.2975 17.0179L19.5005 15.7867L22.1167 20.4556H25.5744L21.6042 13.7828L25.4719 9.57755H21.9333L18.2921 13.7028V5.77742H15.4062V7.02992C14.527 6.09721 13.1029 5.39368 10.8858 5.39368C6.07955 5.39368 5.17331 8.28242 5.17331 9.90267C5.17331 12.1252 6.38163 13.3617 8.49078 13.8627L11.4792 14.5875C13.0543 14.9713 14.1817 15.2538 14.1817 16.405C14.1817 17.94 12.5419 18.3077 11.0692 18.3077C8.36671 18.3077 7.91899 16.7514 7.91899 15.9253H4.95215C4.95215 17.7481 5.89075 20.8394 11.2958 20.8394ZM13.2593 12.0879L9.63976 11.2191C9.02481 11.0752 8.06463 10.8354 8.06463 9.68415C8.06463 8.36769 9.47793 7.92532 10.6647 7.92532C13.3672 7.92532 13.6099 9.48162 13.6908 10.1478H15.4116V12.882C14.7805 12.5143 14.0307 12.2798 13.2593 12.0879Z" fill="#656868"/>
<path d="M7.43889 27.2512C7.1422 27.2512 6.91564 27.2245 6.75382 27.1766V26.3025C6.87249 26.3558 6.99116 26.3824 7.10444 26.3824C7.32021 26.3824 7.47665 26.2918 7.57374 26.0999L7.59532 26.0573L5.52393 22.2678H6.75921L8.09159 25.0127L9.10032 22.2732H10.2871L8.49616 26.3558C8.41525 26.5476 8.30197 26.7129 8.17251 26.8461C8.03765 26.9793 7.90279 27.0806 7.76794 27.1499C7.63308 27.2139 7.5252 27.2512 7.43889 27.2512Z" fill="#656868"/>
<path d="M13.4102 27.1766H12.4446V25.6789C12.3475 25.7322 12.1965 25.8015 11.9861 25.8868C11.7757 25.972 11.5654 26.0147 11.355 26.0147C10.9666 26.0147 10.6645 25.9134 10.438 25.7109C10.2114 25.5084 10.1035 25.1886 10.1035 24.7462V23.547H11.0691V24.7195C11.0691 25.0447 11.2795 25.2099 11.7002 25.2099C11.8297 25.2099 11.9699 25.1832 12.1156 25.1246C12.2666 25.066 12.3745 25.0233 12.4446 24.986V23.547H13.4102V27.1766V27.1766Z" fill="#656868"/>
<path d="M17.4826 26.4623C17.4826 26.6595 17.4988 26.7981 17.5365 26.8727C17.5743 26.9527 17.6282 27.0006 17.6984 27.0273V27.1712H16.6519C16.6087 27.0326 16.5764 26.8887 16.5656 26.7395C16.4091 26.8994 16.2419 27.0273 16.0693 27.1232C15.8967 27.2192 15.6647 27.2671 15.3734 27.2671C15.1793 27.2671 14.9958 27.2298 14.8286 27.1552C14.656 27.0806 14.5212 26.9633 14.4133 26.8034C14.3108 26.6435 14.2568 26.4463 14.2568 26.2118C14.2568 25.9827 14.3 25.7855 14.3917 25.6256C14.4834 25.4603 14.6075 25.3324 14.7639 25.2418C14.9203 25.1512 15.1091 25.0872 15.3249 25.0553L16.1934 24.9274C16.4199 24.8954 16.5332 24.7994 16.5332 24.6395C16.5332 24.4637 16.4739 24.3464 16.3498 24.2931C16.2257 24.2398 16.0747 24.2132 15.8967 24.2132C15.6809 24.2132 15.5353 24.2611 15.4544 24.3571C15.3734 24.453 15.3195 24.5756 15.3033 24.7195H14.3701C14.4025 24.3677 14.4996 24.1012 14.6614 23.9147C14.8178 23.7282 15.012 23.6056 15.2332 23.5416C15.4598 23.4777 15.7187 23.4457 16.0154 23.4457C16.2311 23.4457 16.4523 23.4723 16.6735 23.531C16.8946 23.5896 17.0834 23.6962 17.2453 23.8507C17.4071 24.0053 17.488 24.2238 17.488 24.4956V26.4623H17.4826ZM16.5332 25.407C16.4253 25.487 16.2096 25.5563 15.8751 25.6042C15.7349 25.6256 15.6216 25.6575 15.5299 25.6948C15.4382 25.7322 15.3627 25.7855 15.3033 25.8547C15.2494 25.924 15.217 26.0253 15.217 26.1532C15.217 26.3024 15.2656 26.4144 15.3573 26.4837C15.449 26.5529 15.5515 26.5902 15.6701 26.5902C15.8158 26.5902 15.956 26.5583 16.0855 26.4996C16.2203 26.441 16.3282 26.3557 16.4091 26.2491C16.4901 26.1425 16.5332 26.0146 16.5332 25.8707V25.407Z" fill="#656868"/>
<path d="M21.4852 25.8494C21.4744 25.972 21.442 26.1052 21.3881 26.2598C21.3341 26.4144 21.2478 26.5689 21.1238 26.7235C20.9997 26.8781 20.8271 27.0113 20.6113 27.1126C20.3901 27.2192 20.1258 27.2671 19.813 27.2671C19.4839 27.2671 19.2088 27.2138 18.9876 27.1019C18.7611 26.99 18.5885 26.8461 18.4644 26.6702C18.3403 26.4943 18.2486 26.2971 18.1947 26.0892C18.1407 25.8814 18.1138 25.6682 18.1138 25.455C18.1138 25.0553 18.1731 24.6982 18.2972 24.3997C18.4212 24.0959 18.6154 23.8614 18.8744 23.6962C19.1387 23.5256 19.4677 23.4457 19.8723 23.4457C20.1042 23.4457 20.3362 23.4883 20.5735 23.5683C20.8109 23.6482 21.0159 23.7921 21.1885 24C21.3665 24.2078 21.469 24.485 21.496 24.8367H20.5142C20.4441 24.4477 20.2283 24.2505 19.8723 24.2505C19.6835 24.2505 19.5325 24.3038 19.4192 24.4104C19.3059 24.517 19.225 24.6502 19.1764 24.8048C19.1279 24.9647 19.1063 25.1299 19.1063 25.3004C19.1063 25.4976 19.1225 25.6789 19.1495 25.8441C19.1764 26.0093 19.2466 26.1585 19.3544 26.2865C19.4677 26.4144 19.6296 26.4837 19.8507 26.4837C19.9964 26.4837 20.1204 26.4463 20.2229 26.3717C20.32 26.2971 20.3955 26.2065 20.4387 26.1052C20.4872 26.004 20.5088 25.9187 20.5088 25.8494H21.4852V25.8494Z" fill="#656868"/>
<path d="M22.9525 27.1765V24.3091H21.8521V23.5416H25.0185V24.3091H23.9181V27.1765H22.9525Z" fill="#656868"/>
<path d="M28.8487 27.1766H27.8831V25.7429H26.5076V27.1766H25.542V23.547H26.5076V24.9807H27.8831V23.547H28.8487V27.1766Z" fill="#656868"/>
<path d="M33.0235 27.1766H32.0579V24.9914L30.7525 27.1766H29.7168V23.547H30.6824V25.7322L31.9878 23.547H33.0235V27.1766Z" fill="#656868"/>
<path d="M34.8577 27.1766H33.8921V23.547H34.8577V24.9274L36.0714 23.547H37.2797L35.9581 24.9541L37.3336 27.1766H36.1577L35.2514 25.6203L34.8523 26.0307V27.1766H34.8577Z" fill="#656868"/>
</g>
<defs>
<clipPath id="clip0">
<rect width="45.3333" height="32" fill="white"/>
</clipPath>
</defs>
</svg>
